<?xml version="1.0" encoding="UTF-8"?>
<svg width="1080px" height="378px" viewBox="0 0 1080 378" version="1.1" xmlns="http://www.w3.org/2000/svg" xmlns:xlink="http://www.w3.org/1999/xlink">
    <!-- Generator: Sketch 43.2 (39069) - http://www.bohemiancoding.com/sketch -->
    <title>Logo_black</title>
    <desc>Created with Sketch.</desc>
    <defs></defs>
    <g id="Symbols" stroke="none" stroke-width="1" fill="none" fill-rule="evenodd">
        <g id="Logo_black" fill="#000000">
            <path d="M892.498621,209.356319 C892.498621,209.356319 854.257092,214.581543 858.647142,259.363022 C863.037193,304.144501 922.986505,299.648033 942.778776,299.648033 C962.571047,299.648033 1021.94921,287.146021 993.00909,227.786718 C964.068972,168.427416 915.076601,166.894468 972.364133,119.910555 C972.118969,119.822996 975.047466,120.301201 973.7058,114.178838 C973.585912,114.394367 976.804025,106.088429 975.254912,102.169848 C974.616408,102.478323 975.908234,100.026684 956.951136,107.102761 C956.749078,107.571536 950.922895,110.163269 928.833896,110.151145 C907.510024,113.658875 900.540536,132.424691 900.540536,132.424691 C900.540536,132.424691 883.952907,146.671139 877.235147,147.58983 C870.517386,148.508521 890.96702,156.581419 905.353562,152.389385 C905.759025,152.572585 886.296782,192.066875 902.48703,215.040889 C918.677277,238.014903 925.81145,256.616378 927.322673,269.052385 C926.464599,269.321796 878.906841,252.867525 892.498621,209.356319 Z" id="Path-5"></path>
            <path d="M154.863778,248.193683 C154.601131,247.58084 154.141505,246.486494 153.484888,244.910611 C152.82827,243.334729 152.018454,241.408679 151.055414,239.132404 C150.092375,236.856129 149.041802,234.339132 147.903665,231.581338 C146.765527,228.823543 145.583633,225.956355 144.357947,222.979688 L111.395901,222.979688 L100.89007,248.193683 L85,248.193683 C85.3501961,247.405742 86.1818995,245.457805 87.4951349,242.349815 C88.8083704,239.241824 90.4498901,235.389724 92.4197433,230.7934 C94.3895966,226.197076 96.5782895,221.075535 98.9858879,215.428622 C101.393486,209.78171 103.866709,204.025447 106.405631,198.159662 C108.944553,192.293877 111.417776,186.537614 113.825375,180.890702 C116.232973,175.243789 118.421666,170.122248 120.391519,165.525923 C122.361372,160.929599 124.002892,157.0775 125.316128,153.969509 C126.629363,150.861518 127.461066,148.913582 127.811262,148.12564 C128.161459,148.913582 129.015049,150.861518 130.372059,153.969509 C131.729069,157.0775 133.392475,160.929599 135.362329,165.525923 C137.332182,170.122248 139.520875,175.243789 141.928473,180.890702 C144.336072,186.537614 146.809295,192.293877 149.348217,198.159662 C151.887139,204.025447 154.360362,209.78171 156.76796,215.428622 C159.175558,221.075535 161.364251,226.197076 163.334105,230.7934 C165.303958,235.389724 166.945477,239.241824 168.258713,242.349815 C169.571948,245.457805 170.403652,247.405742 170.753848,248.193683 L154.863778,248.193683 Z M116.911463,209.453431 L138.711062,209.453431 L129.255814,186.603247 C129.168265,186.515698 128.949396,185.924751 128.5992,184.830388 C128.249004,183.736026 127.986361,182.751114 127.811262,181.875623 C127.636164,182.751114 127.373521,183.736026 127.023325,184.830388 C126.673129,185.924751 126.498034,186.515698 126.498034,186.603247 L116.911463,209.453431 Z M181.784971,248.193683 L181.784971,152.459296 L208.837486,152.459296 C214.090428,152.459296 218.883666,153.159678 223.217343,154.560462 C227.55102,155.961247 231.228024,157.974844 234.248466,160.601315 C237.268907,163.227786 239.610809,166.467052 241.27424,170.319209 C242.937672,174.171366 243.769375,178.504978 243.769375,183.320175 C243.769375,185.946646 243.506732,188.573078 242.981438,191.199549 C242.456144,193.82602 241.62444,196.364903 240.486303,198.816276 C239.348166,201.267649 237.859854,203.522003 236.021325,205.579405 C234.182795,207.636807 231.994102,209.409649 229.45518,210.897982 C231.381259,213.962198 233.263535,216.960708 235.102064,219.8936 C236.940594,222.826493 238.800983,225.781228 240.683287,228.757896 C242.565592,231.734563 244.513528,234.798733 246.527156,237.950498 C248.540784,241.102263 250.729477,244.516624 253.093301,248.193683 L233.788836,248.193683 C229.849129,242.065251 226.128351,236.265215 222.62639,230.7934 C219.124429,225.321586 215.753841,220.134384 212.514527,215.231638 L197.806363,215.231638 L197.806363,248.193683 L181.784971,248.193683 Z M197.806363,200.129505 L210.676007,200.129505 C214.00287,200.129505 216.760623,199.560445 218.949349,198.422308 C221.138075,197.28417 222.889029,195.905294 224.202265,194.285637 C225.5155,192.66598 226.434751,190.915025 226.960045,189.032721 C227.485339,187.150417 227.747983,185.421349 227.747983,183.845467 C227.747983,182.357133 227.507226,180.67184 227.025707,178.789535 C226.544187,176.907231 225.66871,175.13439 224.399249,173.470958 C223.129788,171.807527 221.40072,170.406763 219.211995,169.268626 C217.023269,168.130488 214.221742,167.561428 210.80733,167.561428 L197.806363,167.561428 L197.806363,200.129505 Z M320.593267,152.459296 L320.593267,167.824074 L296.955146,167.824074 L296.955146,248.193683 L280.802431,248.193683 L280.802431,167.824074 L257.689602,167.824074 L257.689602,152.459296 L320.593267,152.459296 Z M394.528054,152.459296 L394.528054,167.824074 L370.889934,167.824074 L370.889934,248.193683 L354.737218,248.193683 L354.737218,167.824074 L331.624389,167.824074 L331.624389,152.459296 L394.528054,152.459296 Z M411.074738,152.459296 L427.227454,152.459296 L427.227454,248.193683 L411.074738,248.193683 L411.074738,152.459296 Z M521.385967,241.102247 C520.335379,241.80264 518.868954,242.634343 516.98665,243.597382 C515.104346,244.560422 512.871879,245.457786 510.289183,246.289501 C507.706486,247.121217 504.795525,247.821599 501.55621,248.390668 C498.316896,248.959736 494.858761,249.244267 491.181702,249.244267 C483.652485,249.244267 476.911311,247.952938 470.957977,245.370241 C465.004643,242.787545 459.970649,239.307523 455.855844,234.930071 C451.74104,230.55262 448.589322,225.431078 446.400596,219.565293 C444.21187,213.699508 443.117524,207.527394 443.117524,201.048766 C443.117524,193.869745 444.43074,187.238005 447.057211,181.153348 C449.683682,175.06869 453.251251,169.815827 457.760026,165.394601 C462.268801,160.973374 467.521664,157.537127 473.518773,155.085754 C479.515882,152.634381 485.928752,151.408713 492.757577,151.408713 C495.384048,151.408713 498.032366,151.605695 500.702612,151.999666 C503.372857,152.393636 505.889854,152.897036 508.253678,153.509879 C510.617502,154.122722 512.69676,154.823104 514.491515,155.611045 C516.28627,156.398986 517.577599,157.23069 518.36554,158.10618 C517.577599,159.331867 516.964765,160.338665 516.52702,161.126607 C516.089275,161.914548 515.629649,162.724364 515.14813,163.55608 C514.66661,164.387796 514.141324,165.328934 513.572255,166.379522 C513.003186,167.430111 512.19337,168.874648 511.142781,170.713178 C510.092193,170.012785 508.822751,169.399951 507.334418,168.874657 C505.846084,168.349363 504.292112,167.933511 502.672455,167.62709 C501.052798,167.320668 499.411278,167.079912 497.747847,166.904814 C496.084415,166.729716 494.596104,166.642168 493.282868,166.642168 C488.380122,166.642168 483.849528,167.561419 479.690949,169.399949 C475.53237,171.238478 471.942914,173.667928 468.922472,176.688369 C465.90203,179.708811 463.538242,183.232606 461.831036,187.259862 C460.12383,191.287117 459.270239,195.445634 459.270239,199.735537 C459.270239,203.93789 460.080056,208.030746 461.699713,212.014227 C463.31937,215.997708 465.595611,219.521504 468.528503,222.58572 C471.461396,225.649936 474.941418,228.123159 478.968673,230.005463 C482.995929,231.887767 487.460862,232.828905 492.363608,232.828905 C495.165177,232.828905 497.879156,232.544375 500.505627,231.975306 C503.132098,231.406238 505.452113,230.771517 507.46574,230.071124 C509.479368,229.370732 511.120888,228.67035 512.390349,227.969958 C513.65981,227.269566 514.338305,226.788053 514.425854,226.525406 L521.385967,241.102247 Z" id="ARTTIC-FOX-Copy"></path>
            <g id="Group" transform="translate(564.000000, 151.000000)">
                <polygon id="Path" points="0.282742152 96.8915147 0.282742152 1.35500117 58.5248739 1.35500117 58.5248739 16.163816 16.322336 16.163816 16.322336 42.8983136 53.0030465 42.8983136 53.0030465 57.83818 16.322336 57.83818 16.322336 96.8915147"></polygon>
                <path d="M67.4649754,49.3198351 C67.4649754,42.6798613 68.7577712,36.3894542 71.3434018,30.4484251 C73.9290323,24.5073959 77.4349194,19.3090733 81.8611682,14.8533014 C86.2874171,10.3975296 91.4586005,6.85917555 97.3748737,4.23813327 C103.291147,1.61709099 109.623656,0.306589503 116.372589,0.306589503 C123.033875,0.306589503 129.344472,1.61709099 135.304569,4.23813327 C141.264666,6.85917555 146.479674,10.3975296 150.949747,14.8533014 C155.41982,19.3090733 158.947619,24.5073959 161.533249,30.4484251 C164.11888,36.3894542 165.411675,42.6798613 165.411675,49.3198351 C165.411675,56.047177 164.11888,62.3594258 161.533249,68.2567709 C158.947619,74.1541161 155.41982,79.3087553 150.949747,83.7208431 C146.479674,88.1329309 141.264666,91.6057599 135.304569,94.1394341 C129.344472,96.6731083 123.033875,97.9399264 116.372589,97.9399264 C109.623656,97.9399264 103.291147,96.6731083 97.3748737,94.1394341 C91.4586005,91.6057599 86.2874171,88.1329309 81.8611682,83.7208431 C77.4349194,79.3087553 73.9290323,74.1541161 71.3434018,68.2567709 C68.7577712,62.3594258 67.4649754,56.047177 67.4649754,49.3198351 Z M83.6360413,49.3198351 C83.6360413,53.9503432 84.4906013,58.2968398 86.1997469,62.3594553 C87.9088925,66.4220708 90.2753663,69.9604248 93.2992392,72.9746235 C96.3231122,75.9888221 99.8289993,78.3695665 103.817006,80.116928 C107.805012,81.8642895 112.121636,82.7379572 116.767006,82.7379572 C121.237079,82.7379572 125.466055,81.8642895 129.454061,80.116928 C133.442068,78.3695665 136.904131,75.9888221 139.840356,72.9746235 C142.77658,69.9604248 145.09923,66.4220708 146.808376,62.3594553 C148.517522,58.2968398 149.372082,53.9503432 149.372082,49.3198351 C149.372082,44.6893271 148.49561,40.3428305 146.74264,36.280215 C144.98967,32.2175994 142.623196,28.6574037 139.643148,25.5995211 C136.663099,22.5416384 133.179124,20.1390524 129.191117,18.3916908 C125.203111,16.6443293 120.930311,15.7706617 116.372589,15.7706617 C111.814868,15.7706617 107.542068,16.6443293 103.554062,18.3916908 C99.5660551,20.1390524 96.1039916,22.5416384 93.1677671,25.5995211 C90.2315427,28.6574037 87.9088925,32.2175994 86.1997469,36.280215 C84.4906013,40.3428305 83.6360413,44.6893271 83.6360413,49.3198351 Z" id="Combined-Shape"></path>
                <path d="M198.805584,48.0093205 C198.45499,47.5724802 197.512783,46.1746119 195.978934,43.8156739 C194.445086,41.4567358 192.626407,38.6173159 190.522843,35.297329 C188.419279,31.9773421 186.140452,28.4389881 183.686295,24.6821609 C181.232137,20.9253336 178.95331,17.4088213 176.849746,14.1325184 C174.746183,10.8562156 172.927504,8.03863737 171.393655,5.67969932 C169.859807,3.32076126 168.961423,1.87920963 168.698477,1.35500117 L188.550762,1.35500117 C188.813707,1.79184155 189.427237,2.79655936 190.391371,4.36918473 C191.355504,5.9418101 192.494918,7.79835387 193.809645,9.93887173 C195.124372,12.0793896 196.504815,14.3509255 197.951015,16.7535476 C199.397216,19.1561697 200.777659,21.4277056 202.092386,23.5682235 C203.407113,25.7087413 204.524615,27.5652851 205.444924,29.1379105 C206.365233,30.7105358 207.000675,31.7152536 207.351269,32.152094 C207.438918,32.2394621 207.745683,32.8510295 208.271574,33.9868144 C208.797465,35.1225994 209.235701,36.0836339 209.586295,36.8699465 C209.936889,36.0836339 210.375124,35.1225994 210.901015,33.9868144 C211.426906,32.8510295 211.733671,32.2394621 211.82132,32.152094 C212.084265,31.7152536 212.675884,30.7105358 213.596193,29.1379105 C214.516502,27.5652851 215.612092,25.7087413 216.882995,23.5682235 C218.153898,21.4277056 219.490518,19.1561697 220.892894,16.7535476 C222.295269,14.3509255 223.631889,12.0793896 224.902792,9.93887173 C226.173695,7.79835387 227.269285,5.9418101 228.189594,4.36918473 C229.109903,2.79655936 229.701522,1.79184155 229.964467,1.35500117 L249.816751,1.35500117 L219.972589,48.9266808 L251,96.8915147 L230.884772,96.8915147 L212.084264,66.3565248 C211.996616,66.2691567 211.799409,65.963373 211.49264,65.4391646 C211.18587,64.9149561 210.857193,64.3470721 210.506599,63.7354956 L209.454823,61.9007752 C209.104229,61.2891987 208.885111,60.8523648 208.797462,60.5902606 C208.446868,61.4639414 208.030544,62.3812924 207.548477,63.3423412 C207.066411,64.3033901 206.825381,64.8275907 206.825381,64.9149587 C206.474787,65.4391672 205.817433,66.5094101 204.8533,68.1257195 C203.889166,69.7420289 202.749753,71.642256 201.435026,73.8264579 C200.120298,76.0106599 198.717943,78.3695625 197.227919,80.9032367 C195.737895,83.4369109 194.33554,85.7958136 193.020812,87.9800155 C191.706085,90.1642174 190.566672,92.0862863 189.602538,93.7462797 C188.638405,95.4062731 187.981051,96.4546743 187.630457,96.8915147 L167.383757,96.8915147 C167.734351,96.3673063 168.69847,94.8602296 170.276142,92.3702394 C171.853815,89.8802492 173.73823,86.9316209 175.929442,83.5242659 C178.120654,80.1169109 180.487128,76.4256651 183.028934,72.4504176 C185.570741,68.4751702 187.959126,64.7839243 190.194163,61.3765694 C192.429199,57.9692144 194.335525,55.020586 195.913198,52.5305959 C197.490871,50.0406057 198.45499,48.533529 198.805584,48.0093205 Z" id="Path"></path>
            </g>
        </g>
    </g>
</svg>